{"title":"The.Wolverine.2013.CAM.Xvid.mp3-CRYS","uid":8753360,"size":729539316,"categoryP":"video","categoryS":"movies","magnet":"?xt=urn:btih:158c6d5cc2e71d13d88eb215dd8d487a253b4382&amp;dn=The.Wolverine.2013.CAM.Xvid.mp3-CRYS&amp;tr=udp%3A%2F%2Ftracker.openbittorrent.com%3A80&amp;tr=udp%3A%2F%2Fopen.demonii.com%3A1337&amp;tr=udp%3A%2F%2Ftracker.coppersurfer.tk%3A6969&amp;tr=udp%3A%2F%2Fexodus.desync.com%3A6969","seeders":1,"leechers":0,"uploader":"xxxlavalxxx","files":-1,"time":1375088205,"description":" &lt;a href=&quot;\nhttp://www.imdb.com/title/tt1430132/&quot; rel=&quot;nofollow&quot; target=&quot;_NEW&quot;&gt;\nhttp://www.imdb.com/title/tt1430132/&lt;/a&gt;\n\n\n\nSummoned to Japan by an old acquaintance, Wolverine becomes embroiled in a conflict that forces him to confront his own demons. \n\n\n\nDirector:\n James Mangold \n\nWriters:\n Mark Bomback (screenplay), Scott Frank (screenplay) \n\nStars:\n Hugh Jackman, Tao Okamoto, Rila Fukushima\n\nGenres:\n  Action |  Adventure |  Fantasy |  Sci-Fi \n\nCountry:\n USA  \n\n\n\normat                                   : AVI\nFormat/Info                              : Audio Video Interleave\nFile size                                : 695 MiB\nDuration                                 : 1h 58mn\nOverall bit rate                         : 818 Kbps\nWriting library                          : VirtualDub build 32839/release\n\nVideo\nID                                       : 0\nFormat                                   : MPEG-4 Visual\nFormat profile                           : Simple@L3\nFormat settings, BVOP                    : No\nFormat settings, QPel                    : No\nFormat settings, GMC                     : No warppoints\nFormat settings, Matrix                  : Default (H.263)\nCodec ID                                 : XVID\nCodec ID/Hint                            : XviD\nDuration                                 : 1h 58mn\nBit rate                                 : 681 Kbps\nWidth                                    : 720 pixels\nHeight                                   : 304 pixels\nDisplay aspect ratio                     : 2.35:1\nFrame rate                               : 23.976 fps\nOriginal frame rate                      : 23.000 fps\nColor space                              : YUV\nChroma subsampling                       : 4:2:0\nBit depth                                : 8 bits\nScan type                                : Progressive\nCompression mode                         : Lossy\nBits/(Pixel*Frame)                       : 0.130\nStream size                              : 578 MiB (83%)\nWriting library                          : XviD 1.2.1 (UTC 2008-12-04)\n\nAudio\nID                                       : 1\nFormat                                   : MPEG Audio\nFormat version                           : Version 1\nFormat profile                           : Layer 3\nMode                                     : Joint stereo\nMode extension                           : MS Stereo\nCodec ID                                 : 55\nCodec ID/Hint                            : MP3\nDuration                                 : 1h 58mn\nBit rate mode                            : Constant\nBit rate                                 : 128 Kbps\nChannel(s)                               : 2 channels\nSampling rate                            : 48.0 KHz\nCompression mode                         : Lossy\nStream size                              : 109 MiB (16%)\nAlignment                                : Split accross interleaves\nInterleave, duration                     : 42 ms (1.00 video frame)\nInterleave, preload duration             : 500 ms\n\n\n\nscreens\n\n\n    &lt;a href=&quot;\thttp://addpix.net/viewer.php?file=98751009507139336618.jpg&quot; rel=&quot;nofollow&quot; target=&quot;_NEW&quot;&gt;\thttp://addpix.net/viewer.php?file=98751009507139336618.jpg&lt;/a&gt;\n    &lt;a href=&quot;\thttp://addpix.net/viewer.php?file=04667546991120169978.jpg&quot; rel=&quot;nofollow&quot; target=&quot;_NEW&quot;&gt;\thttp://addpix.net/viewer.php?file=04667546991120169978.jpg&lt;/a&gt;\n    &lt;a href=&quot;\thttp://addpix.net/viewer.php?file=96590528731695039653.jpg&quot; rel=&quot;nofollow&quot; target=&quot;_NEW&quot;&gt;\thttp://addpix.net/viewer.php?file=96590528731695039653.jpg&lt;/a&gt;\n    &lt;a href=&quot;\thttp://addpix.net/viewer.php?file=19516254574875720833.jpg&quot; rel=&quot;nofollow&quot; target=&quot;_NEW&quot;&gt;\thttp://addpix.net/viewer.php?file=19516254574875720833.jpg&lt;/a&gt;\n    &lt;a href=&quot;\thttp://addpix.net/viewer.php?file=14988754032041407438.jpg&quot; rel=&quot;nofollow&quot; target=&quot;_NEW&quot;&gt;\thttp://addpix.net/viewer.php?file=14988754032041407438.jpg&lt;/a&gt;","torrent":{"xt":"urn:btih:158c6d5cc2e71d13d88eb215dd8d487a253b4382","amp;dn":"The.Wolverine.2013.CAM.Xvid.mp3-CRYS","amp;tr":["udp%3A%2F%2Ftracker.openbittorrent.com%3A80","udp%3A%2F%2Fopen.demonii.com%3A1337","udp%3A%2F%2Ftracker.coppersurfer.tk%3A6969","udp%3A%2F%2Fexodus.desync.com%3A6969"],"infoHash":"158c6d5cc2e71d13d88eb215dd8d487a253b4382","infoHashBuffer":{"type":"Buffer","data":[21,140,109,92,194,231,29,19,216,142,178,21,221,141,72,122,37,59,67,130]},"announce":[],"urlList":[]}}